<?xml version="1.0" standalone="no"?>
<!DOCTYPE svg PUBLIC "-//W3C//DTD SVG 20010904//EN"
 "http://www.w3.org/TR/2001/REC-SVG-20010904/DTD/svg10.dtd">
<svg version="1.0" xmlns="http://www.w3.org/2000/svg"
 width="500.000000pt" height="500.000000pt" viewBox="0 0 500.000000 500.000000"
 preserveAspectRatio="xMidYMid meet">

<g transform="translate(0.000000,500.000000) scale(0.100000,-0.100000)"
fill="#000000" stroke="none">
<path d="M2216 3364 c-3 -9 -6 -26 -6 -39 0 -19 -11 -29 -52 -48 -74 -34 -113
-69 -144 -132 l-26 -55 -53 0 c-39 0 -54 -4 -59 -16 -11 -28 -6 -140 6 -152 7
-7 33 -12 59 -12 46 0 48 -1 69 -45 27 -56 105 -127 159 -145 33 -11 41 -18
41 -37 0 -52 15 -63 90 -63 84 0 92 10 88 108 l-3 67 -67 3 c-73 3 -100 20
-81 50 7 12 29 18 79 22 l69 5 3 133 3 132 -69 0 c-70 0 -92 10 -92 42 0 26
31 38 99 38 l61 0 0 64 c0 96 0 96 -90 96 -62 0 -79 -3 -84 -16z"/>
<path d="M2616 3365 c-3 -9 -6 -48 -6 -86 l0 -69 -69 0 c-61 0 -70 -2 -76 -20
-11 -36 12 -50 81 -50 l64 0 0 -135 0 -134 -66 -3 c-49 -2 -70 -7 -77 -20 -20
-31 8 -48 79 -48 l64 0 0 -79 c0 -55 4 -82 14 -90 9 -7 41 -11 83 -9 l68 3 5
38 c5 34 10 39 66 66 65 31 126 92 146 148 12 32 14 33 65 33 41 0 54 4 63 19
14 27 13 134 -2 149 -7 7 -34 12 -60 12 -47 0 -48 1 -72 48 -31 61 -99 124
-159 147 -42 16 -46 21 -49 54 l-3 36 -76 3 c-63 2 -78 0 -83 -13z"/>
<path d="M1447 2403 c-4 -3 -7 -69 -7 -145 l0 -138 100 0 100 0 0 25 c0 24 -2
25 -70 25 l-70 0 0 35 0 35 60 0 c57 0 60 1 60 25 0 24 -3 25 -60 25 l-60 0 0
35 0 35 70 0 c68 0 70 1 70 25 0 25 0 25 -93 25 -52 0 -97 -3 -100 -7z"/>
<path d="M1680 2284 c0 -69 5 -134 10 -145 8 -14 21 -19 50 -19 35 0 40 3 40
24 0 17 -5 23 -17 22 -16 -1 -18 12 -21 122 l-3 122 -29 0 -30 0 0 -126z"/>
<path d="M2590 2385 c0 -20 5 -25 25 -25 20 0 25 5 25 25 0 20 -5 25 -25 25
-20 0 -25 -5 -25 -25z"/>
<path d="M3082 2390 c-78 -35 -104 -147 -50 -215 41 -52 120 -71 166 -39 20
14 22 14 22 0 0 -9 9 -16 20 -16 18 0 20 7 20 75 l0 75 -50 0 c-43 0 -50 -3
-50 -20 0 -16 7 -20 30 -20 36 0 40 -22 8 -44 -43 -31 -101 -19 -123 25 -24
45 -19 87 14 120 35 34 68 37 105 8 25 -20 29 -20 43 -6 14 14 14 18 2 33 -16
20 -70 44 -96 44 -10 0 -37 -9 -61 -20z"/>
<path d="M3373 2390 c-140 -71 -81 -285 74 -267 97 11 151 117 105 206 -36 72
-108 97 -179 61z m114 -51 c19 -17 31 -70 22 -103 -12 -43 -38 -66 -74 -66
-49 0 -76 27 -82 82 -5 43 -3 50 26 79 27 26 37 30 63 25 17 -3 37 -11 45 -17z"/>
<path d="M2290 2365 c0 -24 -5 -35 -15 -35 -8 0 -15 -9 -15 -20 0 -11 7 -20
15 -20 12 0 15 -15 15 -74 0 -85 10 -99 67 -94 30 2 38 7 38 23 0 12 -9 21
-25 25 -23 5 -25 11 -28 63 -3 55 -2 57 23 57 18 0 25 5 25 20 0 15 -7 20 -25
20 -22 0 -25 4 -25 35 0 31 -3 35 -25 35 -22 0 -25 -4 -25 -35z"/>
<path d="M1829 2301 c-24 -24 -29 -38 -29 -76 0 -38 5 -52 29 -76 25 -24 38
-29 78 -29 51 0 102 28 89 49 -9 14 -43 15 -51 1 -9 -14 -58 -13 -73 2 -29 29
-13 38 69 38 l82 0 -7 33 c-16 83 -127 118 -187 58z m119 -24 c28 -22 13 -37
-37 -37 -50 0 -65 7 -53 26 20 30 59 35 90 11z"/>
<path d="M2069 2301 c-24 -24 -29 -38 -29 -76 0 -63 39 -105 99 -105 72 0 127
41 78 59 -15 6 -29 3 -45 -7 -48 -31 -99 27 -74 83 13 29 56 43 77 25 9 -7 26
-10 41 -6 l27 7 -23 25 c-19 19 -33 24 -73 24 -40 0 -53 -5 -78 -29z"/>
<path d="M2430 2225 l0 -105 30 0 30 0 0 69 c0 71 7 86 45 93 26 4 34 48 9 48
-10 0 -28 -10 -41 -22 l-23 -21 0 21 c0 17 -6 22 -25 22 l-25 0 0 -105z"/>
<path d="M2590 2225 l0 -105 25 0 25 0 0 105 0 105 -25 0 -25 0 0 -105z"/>
<path d="M2709 2301 c-24 -24 -29 -38 -29 -76 0 -63 39 -105 99 -105 72 0 127
41 78 59 -15 6 -29 3 -45 -7 -48 -31 -99 27 -74 83 13 29 56 43 77 25 9 -7 26
-10 41 -6 l27 7 -23 25 c-19 19 -33 24 -73 24 -40 0 -53 -5 -78 -29z"/>
</g>
</svg>
